<mxfile host="app.diagrams.net" modified="2023-11-09T16:05:17.122Z" agent="Mozilla/5.0 (Macintosh; Intel Mac OS X 10_15_7) AppleWebKit/537.36 (KHTML, like Gecko) Chrome/119.0.0.0 Safari/537.36" etag="bQ6pw_ovIRM2pP17Jbk1" version="22.1.0" type="device">
  <diagram name="Page-1" id="ZdXn2VTpGKBQTrUOrqVS">
    <mxGraphModel dx="740" dy="644" grid="1" gridSize="10" guides="1" tooltips="1" connect="1" arrows="1" fold="1" page="1" pageScale="1" pageWidth="850" pageHeight="1100" math="0" shadow="0">
      <root>
        <mxCell id="0" />
        <mxCell id="1" parent="0" />
        <mxCell id="y6F0W59Wb2HbK9nUB39n-1" value="" style="ellipse;whiteSpace=wrap;html=1;aspect=fixed;fillColor=#d5e8d4;strokeColor=#82b366;" parent="1" vertex="1">
          <mxGeometry x="275" y="160" width="140" height="140" as="geometry" />
        </mxCell>
        <mxCell id="y6F0W59Wb2HbK9nUB39n-22" value="" style="ellipse;shape=cloud;whiteSpace=wrap;html=1;fillColor=#e1d5e7;strokeColor=#9673a6;" parent="1" vertex="1">
          <mxGeometry x="310" y="190" width="50" height="40" as="geometry" />
        </mxCell>
        <mxCell id="y6F0W59Wb2HbK9nUB39n-29" value="" style="ellipse;whiteSpace=wrap;html=1;aspect=fixed;dashed=1;fillColor=#dae8fc;strokeColor=#6c8ebf;" parent="1" vertex="1">
          <mxGeometry x="440" y="165" width="45" height="45" as="geometry" />
        </mxCell>
        <mxCell id="y6F0W59Wb2HbK9nUB39n-34" value="" style="endArrow=classicThin;dashed=1;html=1;rounded=0;exitX=0.875;exitY=0.5;exitDx=0;exitDy=0;exitPerimeter=0;entryX=0;entryY=0.5;entryDx=0;entryDy=0;endFill=1;" parent="1" source="y6F0W59Wb2HbK9nUB39n-22" target="y6F0W59Wb2HbK9nUB39n-29" edge="1">
          <mxGeometry width="50" height="50" relative="1" as="geometry">
            <mxPoint x="490" y="470" as="sourcePoint" />
            <mxPoint x="540" y="420" as="targetPoint" />
          </mxGeometry>
        </mxCell>
        <mxCell id="y6F0W59Wb2HbK9nUB39n-41" value="&lt;font style=&quot;font-size: 14px;&quot;&gt;Liquidity Pool&lt;/font&gt;" style="text;html=1;strokeColor=none;fillColor=none;align=center;verticalAlign=middle;whiteSpace=wrap;rounded=0;" parent="1" vertex="1">
          <mxGeometry x="275" y="240" width="132.5" height="40" as="geometry" />
        </mxCell>
        <mxCell id="xNbkKhTB-c0d1K6EjCZd-1" value="" style="shape=image;verticalLabelPosition=bottom;labelBackgroundColor=default;verticalAlign=top;aspect=fixed;imageAspect=0;image=data:image/png,iVBORw0KGgoAAAANSUhEUgAAADwAAAAkCAYAAADVeVmEAAABWGlDQ1BJQ0MgUHJvZmlsZQAAKJF1kEtLAmEUhh8nwy6SLVoWCC0KsgiVLrQyiwqExC50gWAcTQO1z3Eqgtat27aoVX8hkla1bxNBELTvBwQSVExntNKKDhzOw8v7Hc73gtaiK5VzA/mCZSZmJv0rq2t+zxPttOJhgA7dKKlIPB4TC1/zZ1XucTnzbtDZ1Xd8qM2cBs/DE7flZa04+9f/o9pS6ZIh80162FCmBa6AcHzPUg4fCHeZcpTwkcOZGp85nKxxuepZTESFb4Q7jayeEn4UDiQb9EwD53M7xucNzvXedGFpwdkj3U2cWWL4CTLKCNOMsfyPP1z1R9lGsY/JFhmyWPI2IooiR1p4jgIGQwSqO4elQ07Ov/Ora2oexndB0+vaxhRc9IKvWNf65T++TbheV7qpf6fqqrhLm6Fgjb0mNL/Y9nMPeC7h3bTt1xPbfpcMmx7gqvgBGElfXsdxwMYAAAXEZVhJZk1NACoAAAAIAAQBGgAFAAAAAQAAAD4BGwAFAAAAAQAAAEYBKAADAAAAAQACAACHaQAEAAAAAQAAAE4AAAAAAAAAkAAAAAEAAACQAAAAAQADkoYABwAABUwAAAB4oAIABAAAAAEAAAA8oAMABAAAAAEAAAAkAAAAAEFTQ0lJAAAAQUFBRTRIamFiVk5iYkJ0RkZMMnprN1pKMnNTYnBJODBmVzJKQXltbHhVa0REU21QT0UzZGhqYnVZKzNFY2V5YQo4WHJzYkxQZU5idmp0RzRVTkIrb0lBUWZmS0JDaFlBNFFsQ0VnQ0lJQ0FrUWp3QkNWVlNjQ0pBUW9INzFCL0hCCkQwSVZFck8yVlFycWpGWjc3NTI1Yzg4OWN5YVpNM1NIK1h6TFNNSTFLMWF1cW85NHA2anQ2Slk1NWlXMk5xRUwKTCtSbFZpN2l0WktucU1hY1prRG5Ya25JbnFCNm1CWm95bC9kOUYxdFhjaTJMTWJSMi9MMjFXczZicitqYzhlZApPKy9hdGZ2dWUvYmQzei80OE9Iako2TGpKd2xObjhybVdEN3NOZk9Hc2RUUTZKSGJ2S05CZGZja0xUaFI4YThXCkdmRnFCbkdjaTAzTkxXdlhyZC9RdXBGTEhQTWF2b0t2NUt0NExhL2o5UmMzYmQ2eWRadXkvYloydnBxdjRZM2MKdzV0NEc5L0V0L0N0WElra2lVTU4zYVJoelRJc081UzFValRNZEdiUVNNNm1KSnMwYUR4TE1xYWUxalhDUkx1aApGR0ZVdEpVazJtVEd0dkptYXIrYkdIV3N2SzNSRUQzRDJxRTZsbnhkbnU0OVBlR2dldUxnUUN5b2xqZXFPYUxSCmdFOFJFMlRFRzByMzd1MjlMMXBwd3lSWkdxbVkxQm10SmhSNyt5SkI5V2k1WDdtbTVIbmd3WWZHQkFFT3MzVXoKdytWajRnRC9RSm5uNFR3akFxOWFYcG56NzNmektzN1NBVS9nNEtHaEc3NEE0MmZDU3VZWmRYZ3ozOGhiRW5JcApsckswZkphYXJJeGd2TXVYWS9GcFlqTmRNK2hNZlN6dlVJRjlrbVRvdURCZHJFNTh1c3phak5JaElpa2xiZG5pCk01bFNqdDZjTVUyeWpsUElKc1hPTEdFVHp2L1gzT0N0MXNiekxOMGJuOWJObkVCcWFwVkM2YnloTUV0aGhSeFYKVXJvdGVERUt3aUNhclF1c2lqWkJiS0l4b2M1NlZ6aEhnc2RtaC9uYTJhTjhIVzhkQ2FvQkFYQlpEWVU5STZPUgpNZUdyK2xrcWlFa0hESkp4aEI4VWpiWDNkMWF1VUpiNWVyNWhaTmd5aVdZSnBtUHg2Z25GV0o5d0U0OElKZ2QxCnpSVUdzUXZGaEJ0TWFnbTUrU2FDVXhYT2k2bStXOGJiKzdzcnRVb1p6NFR1YXB6cEFvRi80YkVYUC8vZ3VRNisKV1J3NWFZaXlnMEo0eGNrK1YxWG1ucDVBbHlJbThBYjNiaDg5Tk1TM3ViYzRGaHVrQmlPS1hoQlpVNmNUY3NzTgpXZndMYzI0cTBRZTEwQVJ0NElVZDBBMTdZUWlPd0hGUTRUVE13T1B3Tkp5SGwrQjFlQVBlaExmZ0hYZ1gzb041CitCQStnaS9oSy9nR3ZvWExzQWhYb0FUTDhEMzhDRmZoR3Z3R2Y4QjFWSWNha1lKMm9oNjBEL2xSRUlYUktCcEQKSjVHT2JIUVd6YUJ6NkVuMEREcVBYa0FYME12b0Vub2ZmWUlXMENMNkNmMk1ma1ZYcFhucFkrbFQ2VFBwQzJsQgorbHBhbEg2UWZwR3VTYjlMZjBwL1NkZWx2M0VOcnNNeWJzR3R1QU4zNGwxNEFCL0FVYXpoQ1p6REJUeU5PWDRDClA0V2Z4Yy9qQzNnV3orRlg4V3Y0RXA3SGx5c1VTNmo2Tk0vQWZ3YSs4ZytCM3BOWnxFXX8AAAAJcEhZcwAAFiUAABYlAUlSJPAAAAgvaVRYdFhNTDpjb20uYWRvYmUueG1wAAAAAAA8eDp4bXBtZXRhIHhtbG5zOng9ImFkb2JlOm5zOm1ldGEvIiB4OnhtcHRrPSJYTVAgQ29yZSA2LjAuMCI+CiAgIDxyZGY6UkRGIHhtbG5zOnJkZj0iaHR0cDovL3d3dy53My5vcmcvMTk5OS8wMi8yMi1yZGYtc3ludGF4LW5zIyI+CiAgICAgIDxyZGY6RGVzY3JpcHRpb24gcmRmOmFib3V0PSIiCiAgICAgICAgICAgIHhtbG5zOnRpZmY9Imh0dHA6Ly9ucy5hZG9iZS5jb20vdGlmZi8xLjAvIgogICAgICAgICAgICB4bWxuczpleGlmPSJodHRwOi8vbnMuYWRvYmUuY29tL2V4aWYvMS4wLyI+CiAgICAgICAgIDx0aWZmOllSZXNvbHV0aW9uPjE0NDwvdGlmZjpZUmVzb2x1dGlvbj4KICAgICAgICAgPHRpZmY6WFJlc29sdXRpb24+MTQ0PC90aWZmOlhSZXNvbHV0aW9uPgogICAgICAgICA8dGlmZjpSZXNvbHV0aW9uVW5pdD4yPC90aWZmOlJlc29sdXRpb25Vbml0PgogICAgICAgICA8ZXhpZjpQaXhlbFlEaW1lbnNpb24+MzY8L2V4aWY6UGl4ZWxZRGltZW5zaW9uPgogICAgICAgICA8ZXhpZjpVc2VyQ29tbWVudD5BQUFFNEhqYWJWTmJiQnRGRkwyems3Wkoyc1NicEk4MGZXMkpBeW1seFVrRERTbVBPRTNkaGpidVkrM0VjZXlhJiN4QTs4WHJzYkxQZU5idmp0RzRVTkIrb0lBUWZmS0JDaFlBNFFsQ0VnQ0lJQ0FrUWp3QkNWVlNjQ0pBUW9INzFCL0hCJiN4QTtEMElWRXJPMlZRcnFqRlo3NzUyNWM4ODljeWFaTTNTSCtYekxTTUkxSzFhdXFvOTRwNmp0NkpZNTVpVzJOcUVMJiN4QTtMK1JsVmk3aXRaS25xTWFjWmtEblhrbklucUI2bUJab3lsL2Q5RjF0WGNpMkxNYlIyL0wyMVdzNmJyK2pjOGVkJiN4QTtPKy9hdGZ2dWUvYmQzei80OE9Iako2TGpKd2xObjhybVdEN3NOZk9Hc2RUUTZKSGJ2S05CZGZja0xUaFI4YThXJiN4QTtHZkZxQm5HY2kwM05MV3ZYcmQvUXVwRkxIUE1hdm9LdjVLdDRMYS9qOVJjM2JkNnlkWnV5L2JaMnZwcXY0WTNjJiN4QTt3NXQ0RzkvRXQvQ3RYSWtraVVNTjNhUmh6VElzTzVTMVVqVE1kR2JRU002bUpKczBhRHhMTXFhZTFqWENSTHVoJiN4QTtGR0ZVdEpVazJtVEd0dkptYXIrYkdIV3N2SzNSRUQzRDJxRTZsbnhkbnU0OVBlR2dldUxnUUN5b2xqZXFPYUxSJiN4QTtnRThSRTJURUcwcjM3dTI5TDFwcHd5UlpHcW1ZMUJtdEpoUjcreUpCOVdpNVg3bW01SG5nd1lmR0JBRU9zM1V6JiN4QTt3K1ZqNGdEL1FKbm40VHdqQXE5YVhwbno3M2Z6S3M3U0FVL2c0S0doRzc0QTQyZkNTdVlaZFhnejM4aGJFbklwJiN4QTtsckswZkphYXJJeGd2TXVYWS9GcFlqTmRNK2hNZlN6dlVJRjlrbVRvdURCZHJFNTh1c3phak5JaElpa2xiZG5pJiN4QTtNNWxTanQ2Y01VMnlqbFBJSnNYT0xHRVR6di9YM09DdDFzYnpMTjBibjliTm5FQnFhcFZDNmJ5aE1FdGhoUnhWJiN4QTtVcm90ZURFS3dpQ2FyUXVzaWpaQmJLSXhvYzU2VnpoSGdzZG1oL25hMmFOOEhXOGRDYW9CQVhCWkRZVTlJNk9SJiN4QTtNZUdyK2xrcWlFa0hESkp4aEI4VWpiWDNkMWF1VUpiNWVyNWhaTmd5aVdZSnBtUHg2Z25GV0o5d0U0OElKZ2QxJiN4QTt6UlVHc1F2RmhCdE1hZ201K1NhQ1V4WE9pNm0rVzhiYis3c3J0VW9aejRUdWFwenBBb0YvNGJFWFAvL2d1UTYrJiN4QTtXUnc1YVlpeWcwSjR4Y2srVjFYbW5wNUFseUltOEFiM2JoODlOTVMzdWJjNEZodWtCaU9LWGhCWlU2Y1Rjc3NOJiN4QTtXZndMYzI0cTBRZTEwQVJ0NElVZDBBMTdZUWlPd0hGUTRUVE13T1B3Tkp5SGwrQjFlQVBlaExmZ0hYZ1gzb041JiN4QTsrQkErZ2kvaEsvZ0d2b1hMc0FoWG9BVEw4RDM4Q0ZmaEd2d0dmOEIxVkljYWtZSjJvaDYwRC9sUkVJWFJLQnBEJiN4QTtKNUdPYkhRV3phQno2RW4wRERxUFhrQVgwTXZvRW5vZmZZSVcwQ0w2Q2YyTWZrVlhwWG5wWStsVDZUUHBDMmxCJiN4QTsrbHBhbEg2UWZwR3VTYjlMZjBwL1NkZWx2M0VOcnNNeWJzR3R1QU4zNGwxNEFCL0FVYXpoQ1p6REJUeU5PWDRDJiN4QTtQNFdmeGMvakMzZ1d6K0ZYOFd2NEVwN0hseXNVUzZqNk5NL0Fmd2ErOGcrQjNwTlo8L2V4aWY6VXNlckNvbW1lbnQ+CiAgICAgICAgIDxleGlmOlBpeGVsWERpbWVuc2lvbj42MDwvZXhpZjpQaXhlbFhEaW1lbnNpb24+CiAgICAgIDwvcmRmOkRlc2NyaXB0aW9uPgogICA8L3JkZjpSREY+CjwveDp4bXBtZXRhPgr8tkGuAAAEwklEQVRoBeWYW6iVVRDHt9kFEzuaUmElHiotu6j5FESkUUJE0ZUIRA/12IWEwBcpydLeulEhEhRmF0vTl4oKLSmohx7CEiQxoYfueY5iZnb5/Wn9d3PW+fa3v73dstungT8zs2ZmrZlv1lrft3et9j+jsW3UO56Y48AfbcT2XMgcMj4MfgRTei77NhLeQsxfCY+1EV8lpA8n7aKu0zwycLHi+0Gnu7yaOQ+BH8Ak0FXazOqxYMlKsFM0k4n+BF7jpk5N3M48l6ZEvoQfSXKnuzydedVdzbsPnA26Rm+ysp6+Lq11wF0QXwU6RQuZ6B7Q6aPSUn5z8VZhm1KUtp5eSS5aZ3lyso0KpkLdXRf0EoILFn/Uhl7n6q6KdXddz/kIsctD6KOiyxspJO+ui16PELv8iA0t8on4Xw5mVIxr1b/itP9cUEXd9QQXIORdPtXGivwB/Hwz6+F9AsrmWNai/3L8d4E7QVMq666DX0Zot8uLiNUDU1ITgIrVXGtBES1hUA2w/6fIZf5Tk10+H4FSmo21rLsOnoWgpF30IHJZhxzXj/AreMID8O1A8+wOYxbPQdBOiP4fozfyV9wdyS6f5zRQRm9gbHR287hXGHDB4itzhwJdif8CTk62PvhvQPGfp7HInkKJ/qeg+ygUPSDFrgHO63YNNKJLMFTpruMvRMi7PMnGAn4iY4PgmWAbQHZyKi6S/IdA9F+Mbn99CBWRzq59zihy8NjrCFW765hXETy5+MM2FHBtZz2gecG2FdnxV4dxiUX+7wX/azJ/qfH87iyw14da7a4D1WU9JCetDpZ1+XgHwlWQY/ci68+FnKL/WRi9o75DHps7o8fz+2y055MvT8YV0amC/AU+2hkmnbH7rRTwI2FsMfKYpL8AV/E5Rf+bMTrvjcgqPqcrw8C2IA8TL0bTYpuGjVZXLkrx7vI+dH0klJEK/Ro4RrdxM9qGg/3nN3CO5/f0Bj611zCo4DmNHCqMb8DHyYivaBKzIPhvb+Irsx7QAaC5tZ3dacQ6xfOrn7OF5O60211P6l3iopt1+UUC7XuXJ4GvBGuCbrEfwf5veTDj8fzGm32Ym27Zo+2uJ9RZdlLiD9mQ8XHo7tZBZJ17kS4o/cXzuJSMrkX33EV2uetB2edWDUTS5LphbwM7gBI4FxwNrSdYF4vpPgQlp25HmosyPg1shutdK7oRTAHPS8lITTF9ayFwzXd90D8Icl3Mv5T8dDrJH6yv9q9wHaLXGEjDJ8F3gXeTnrO4pddlxjHo8dteb45C8jvNix8Lrs/Cvmx1fXN77UXIk8Hb4HswDTSiLRiU409gVnI6D/4OiLk/nWwjWHQ6VrK24g0jVq7V7mZMNhWud62KvQKUkXbBk0C5KlYPU7J2xt4kS78FjCBtg26TtullYD/4EAyCKqQ4vRV02X0GvgJ6YNpJmuvMxGG9SSpgKRgARY2KryPtgJ6mqWQ/BHzkrsqq0Tbfk+za5jMye10t+lKpG/9DwnxymRDy+T3IEu8F0yVAy4DOc0+TvhPcXX2dxUbpx/3hZF8LHxV0GlXoItJ/U9NSRbPhq4BueHV8NTgBjBpaQCX6mIivokPo7wMVX4mKbrtKgV10msja/eBn8A1QhyvT3ze4o0Jl5SsvAAAAAElFTkSuQmCC;" vertex="1" parent="1">
          <mxGeometry x="449.84000000000003" y="179.5" width="28" height="16.8" as="geometry" />
        </mxCell>
        <mxCell id="xNbkKhTB-c0d1K6EjCZd-2" value="" style="shape=image;verticalLabelPosition=bottom;labelBackgroundColor=default;verticalAlign=top;aspect=fixed;imageAspect=0;image=data:image/png,iVBORw0KGgoAAAANSUhEUgAAADYAAAAcCAYAAAAqckyNAAABWGlDQ1BJQ0MgUHJvZmlsZQAAKJF1kEtLAmEUhh8nwy6SLVoWCC0KsgiVLrQyiwqExC50gWAcTQO1z3Eqgtat27aoVX8hkla1bxNBELTvBwQSVExntNKKDhzOw8v7Hc73gtaiK5VzA/mCZSZmJv0rq2t+zxPttOJhgA7dKKlIPB4TC1/zZ1XucTnzbtDZ1Xd8qM2cBs/DE7flZa04+9f/o9pS6ZIh80162FCmBa6AcHzPUg4fCHeZcpTwkcOZGp85nKxxuepZTESFb4Q7jayeEn4UDiQb9EwD53M7xucNzvXedGFpwdkj3U2cWWL4CTLKCNOMsfyPP1z1R9lGsY/JFhmyWPI2IooiR1p4jgIGQwSqO4elQ07Ov/Ora2oexndB0+vaxhRc9IKvWNf65T++TbheV7qpf6fqqrhLm6Fgjb0mNL/Y9nMPeC7h3bTt1xPbfpcMmx7gqvgBGElfXsdxwMYAAAXEZVhJZk1NACoAAAAIAAQBGgAFAAAAAQAAAD4BGwAFAAAAAQAAAEYBKAADAAAAAQACAACHaQAEAAAAAQAAAE4AAAAAAAAAkAAAAAEAAACQAAAAAQADkoYABwAABUwAAAB4oAIABAAAAAEAAAA2oAMABAAAAAEAAAAcAAAAAEFTQ0lJAAAAQUFBRTMzamFiVk5iYkJ0RkZMMnprN1pKMnNTYnBJODBmVzJKQXltaHhYbEFnOHNqVHRPMG9ZbjdXRHR4RXJ0bQp2QjQ3VzY5M3plNDRyV3NGelVkVkVJSVB2Z29WQXBJSVFSR0NnbWhWSVFGQ0VFQ0FBaVFSSUNGQS9lb1A0b01mCmhDb2tabTJyRk5RWnJmYmVPM1Bubm52bVRDSm42QTd6K1ZhUWhLdFdyVjVURy9GT1U5dlJMWFBjUzJ4dFNoZGUKeU11c1hNUnJKVTVTalRtTmdNNjlFcGM5UWZVd0xkQmtvTExwdStxYWtHMVpqS08zNVoxcjE3WGRlVmY3cnJzNwo3dG05NTk3NzlqM1lOL0RvNFdQSEp5WlBFSm82bWMyeGZOaHI1ZzFqdWE3ZUk3ZDR4NExxbmd3dE9CUGlYeWt5CjZ0VU00amdYR3hxYjFtL1l1S2w1TTVjNDVsVjhGVi9OMS9CcVhzTnJMMjdadW0zN0RtWG5IYTE4TFYvSDY3bUgKTi9BV3ZvVnY0OXU1RWtrUWh4cTZTY09hWlZoMktHc2xhWmpwektDUm5FMUpObUhRV0pha1RUMmxhNFNKZGtOSgp3cWhvSzBHMFROcTI4bVp5djVzNDRWaDVXNk1oZXBxMVFtVXMrem85WGQwOTRhQjYvR0IvTktpV05xbzVvdEZCCm55SW15SWpYTGQyL3QvZUJpWEliSnNuU1NObWt6bGdsWWE3WEh3bXFSMHI5eWxWTG5vY2VmbVJjRU9Bd1d6ZlQKWEQ0cURnajBsM2dleVRNaThLcWxsZm5BZmpldjdDd2Y4QXdlUERSMDB4ZGdBa3hZaVR5akRtL2ttM2xUWEY2SwpKaTB0bjZVbUt5R1k3UFRsV0t4SWJLWnJCcDJwamVZZEtyQm5TSnBPQ3RQRjZzU0tKZFptbERZUlNTb3B5eGFmCnlaUlM5TmFNSXNrNlRpR2JFRHV6aEUwNS8xOXpnN2RibTh5elZHK3NxSnM1Z2RUVXlvVlNlVU5obHNJS09hb2sKZFZ2d1loU0VRVFJiRjFnVmJZcllSR05DbmJXdWNJYURSMmRIK1ByWkkzd0RieDROcW9NQzRJb2FDbnRHeHlMagp3bGYxTTFRUWt4bzBTTm9SZmxBMDF0clhYcjVDV2VZYithYlJFY3NrbWlXWWpzWXFKOHhGL2NLTlB5YVlITkExClZ4akVMc3pGM1dCQ2k4dU50eENjTEhNK2wvVGZOdDdhMTFXdXRaVDJUT211eHBrdUVBUVdubmp4YWtkM2pHOFYKUjJZTVVYWkFDRzh1NDNkVlpYYjNESFlxWWdLdmMrLzI4VU5EZklkN2k1SG9BRFVZVVlaRjB2U3B1TngwVXhYLwpvcHlmanZ1aEdocWdCYnl3QzdwZ0x3ekJNQndERlU3QkRKeUZaK0E4dkFTdnd4dndKcndGbCtCZGVBK3V3RlY0Ckh6NkZ6K0FMK0JLK2hrWDRGcFpnQmI2SEgrRWFYSWZmNEErNGdXcFFQVkpRQitwQisxQUFCVkVZamFGeGRBTHAKeUVabjBBdzZoNTVDejZMejZBVjBBYjJNM2tHWDBZZG9BUzJpbjlEUDZGZDBUYm9pZlNCOUpIMHNmU0l0U0o5TAppOUlQMGkvU2RlbDM2VS9wTCttRzlEZXV3alZZeGsyNEdiZmhkcndiOStNRGVBSnJlQXJuY0FFWE1jZFA0cWZ4CmMvaDVmQUhQNG5uOEtuNE5YOEtYOFZkbGhpVlVlWm1uNFQ4RGYvTVBmUCtSL2c9PbcQR7IAAAAJcEhZcwAAFiUAABYlAUlSJPAAAAgvaVRYdFhNTDpjb20uYWRvYmUueG1wAAAAAAA8eDp4bXBtZXRhIHhtbG5zOng9ImFkb2JlOm5zOm1ldGEvIiB4OnhtcHRrPSJYTVAgQ29yZSA2LjAuMCI+CiAgIDxyZGY6UkRGIHhtbG5zOnJkZj0iaHR0cDovL3d3dy53My5vcmcvMTk5OS8wMi8yMi1yZGYtc3ludGF4LW5zIyI+CiAgICAgIDxyZGY6RGVzY3JpcHRpb24gcmRmOmFib3V0PSIiCiAgICAgICAgICAgIHhtbG5zOnRpZmY9Imh0dHA6Ly9ucy5hZG9iZS5jb20vdGlmZi8xLjAvIgogICAgICAgICAgICB4bWxuczpleGlmPSJodHRwOi8vbnMuYWRvYmUuY29tL2V4aWYvMS4wLyI+CiAgICAgICAgIDx0aWZmOllSZXNvbHV0aW9uPjE0NDwvdGlmZjpZUmVzb2x1dGlvbj4KICAgICAgICAgPHRpZmY6WFJlc29sdXRpb24+MTQ0PC90aWZmOlhSZXNvbHV0aW9uPgogICAgICAgICA8dGlmZjpSZXNvbHV0aW9uVW5pdD4yPC90aWZmOlJlc29sdXRpb25Vbml0PgogICAgICAgICA8ZXhpZjpQaXhlbFlEaW1lbnNpb24+Mjg8L2V4aWY6UGl4ZWxZRGltZW5zaW9uPgogICAgICAgICA8ZXhpZjpVc2VyQ29tbWVudD5BQUFFMzNqYWJWTmJiQnRGRkwyems3Wkoyc1NicEk4MGZXMkpBeW1oeFhsQWc4c2pUdE8wb1luN1dEdHhFcnRtJiN4QTt2QjQ3VzY5M3plNDRyV3NGelVkVkVJSVB2Z29WQXBJSVFSR0NnbWhWSVFGQ0VFQ0FBaVFSSUNGQS9lb1A0b01mJiN4QTtoQ29rWm0yckZOUVpyZmJlTzNQbm5udm1UQ0puNkE3eitWYVFoS3RXclY1VEcvRk9VOXZSTFhQY1MyeHRTaGRlJiN4QTt5TXVzWE1SckpVNVNqVG1OZ002OUVwYzlRZlV3TGRCa29MTHB1K3Fha0cxWmpLTzM1WjFyMTdYZGVWZjdycnM3JiN4QTs3dG05NTk3NzlqM1lOL0RvNFdQSEp5WlBFSm82bWMyeGZOaHI1ZzFqdWE3ZUk3ZDR4NExxbmd3dE9CUGlYeWt5JiN4QTs2dFVNNGpnWEd4cWIxbS9ZdUtsNU01YzQ1bFY4RlYvTjEvQnFYc05yTDI3WnVtMzdEbVhuSGExOExWL0g2N21IJiN4QTtOL0FXdm9WdjQ5dTVFa2tRaHhxNlNjT2FaVmgyS0dzbGFaanB6S0NSbkUxSk5tSFFXSmFrVFQybGE0U0pka05KJiN4QTt3cWhvSzBHMFROcTI4bVp5djVzNDRWaDVXNk1oZXBxMVFtVXMrem85WGQwOTRhQjYvR0IvTktpV05xbzVvdEZCJiN4QTtueUlteUlqWExkMi90L2VCaVhJYkpzblNTTm1remxnbFlhN1hId21xUjByOXlsVkxub2NlZm1SY0VPQXdXemZUJiN4QTtYRDRxRGdqMGwzZ2V5VE1pOEtxbGxmbkFmamV2N0N3ZjhBd2VQRFIwMHhkZ0FreFlpVHlqRG0va20zbFRYRjZLJiN4QTtKaTB0bjZVbUt5R1k3UFRsV0t4SWJLWnJCcDJwamVZZEtyQm5TSnBPQ3RQRjZzU0tKZFptbERZUlNTb3B5eGFmJiN4QTt5WlJTOU5hTUlzazZUaUdiRUR1emhFMDUvMTl6ZzdkYm04eXpWRytzcUpzNWdkVFV5b1ZTZVVOaGxzSUtPYW9rJiN4QTtkVnZ3WWhTRVFUUmJGMWdWYllyWVJHTkNuYld1Y0lhRFIyZEgrUHJaSTN3RGJ4NE5xb01DNElvYUNudEd4eUxqJiN4QTt3bGYxTTFRUWt4bzBTTm9SZmxBMDF0clhYcjVDV2VZYithYlJFY3NrbWlXWWpzWXFKOHhGL2NLTlB5YVlITkExJiN4QTtWeGpFTHN6RjNXQkNpOHVOdHhDY0xITStsL1RmTnQ3YTExV3V0WlQyVE9tdXhwa3VFQVFXbm5qeGFrZDNqRzhWJiN4QTtSMllNVVhaQUNHOHU0M2RWWlhiM0RIWXFZZ0t2YysvMjhVTkRmSWQ3aTVIb0FEVVlVWVpGMHZTcHVOeDBVeFgvJiN4QTtvcHlmanZ1aEdocWdCYnl3QzdwZ0x3ekJNQndERlU3QkRKeUZaK0E4dkFTdnd4dndKcndGbCtCZGVBK3V3RlY0JiN4QTtIejZGeitBTCtCSytoa1g0RnBaZ0JiNkhIK0VhWElmZjRBKzRnV3BRUFZKUUIrcEIrMUFBQlZFWWphRnhkQUxwJiN4QTt5RVpuMEF3Nmg1NUN6Nkx6NkFWMEFiMk0za0dYMFlkb0FTMmluOURQNkZkMFRib2lmU0I5Skgwc2ZTSXRTSjlMJiN4QTtpOUlQMGkvU2RlbDM2VS9wTCttRzlEZXV3alZZeGsyNEdiZmhkcndiOStNRGVBSnJlQXJuY0FFWE1jZFA0cWZ4JiN4QTtjL2g1ZkFIUDRubjhLbjROWDhLWDhWZGxoaVZVZVptbjRUOERmL01QZlArUi9nPT08L2V4aWY6VXNlckNvbW1lbnQ+CiAgICAgICAgIDxleGlmOlBpeGVsWERpbWVuc2lvbj41NDwvZXhpZjpQaXhlbFhEaW1lbnNpb24+CiAgICAgIDwvcmRmOkRlc2NyaXB0aW9uPgogICA8L3JkZjpSREY+CjwveDp4bXBtZXRhPgp0uJrEAAADJUlEQVRYCd2YyWsVQRDGs7grGI2ItxgR9yUxgl4EjecgRPCgN/8BQRRBEfflKPEsgrjvnvSioCIoBMQF/wGvIjEKLhj19z26QmV8b3z9pgeCBd+rml6+qu6amp43TU3/qbQWWNd05raAkQIc425qFxH9AB/AnHEXHQFNaDCoo8ybCNrBXrAPpJQnkC0C2rzvAT/RzWASmBy04n8EtoMxooGx0sOEQTfpC3YnUPZSiTauA8wFm4AWYjKE8RxIy/dDcBUUlnsw/M7gdGHW2gRahPl7j91We2jjPWuCk3do3Rrm8DN2GbU2DV7diubnLHYpchfWX6ALXATmUPoUSC2bIfQ++lM7EF93cHInkC9G61FvjpW19tCXSh1z/NrQ1PyVOLUgy1algZ9LwBYmfdI6Eumnjv91Is4xNMqWFmXZss4lGD5rw1yn2tWpcPn6GjCnKfVtyLLZMv7LGD5rJ6yjoC69vvSgqJYti3spRjZrs62zgNZZZhsm/6nuhNGQ8rJlg664IBRMiqzp7cMWlry+VkOely26K7KMX5+1T1wXyVrp9XWLAGvVVmVF7kevNbbD0sddX6zZm+HqjyXIG7+KznqyZRzLMbJZm2WdkbrU+rpJMPVmy+K+huGzpgO2ESmtvmKzZcEra9oMW5xqLTZrRepLf6XOgQWgqtygNTZbRnQdwxYmrdsqRnoZ7OfH1NeOMFdH0F+ykpaY2soSrAjzLbghrtuyg3Kuj9BncxVHzPn1jPEva3FrxxvNlnEq4xactIKtVx4z0ObGnF89Yd7uao5st7PvhNXG5rVZ1i3AerM2BdJvwOYN5DlxffpEMAj0H3Geax819VQrmi0j01PVApQ+bB05Wp8B/Jx662t/mHffuLVSEz3RtoG3QN8SFoIiopfjrY5gF/YZoOzVko2uQwvUbZkniv8gOBAGXag2OPvm4HculX2omuPQ1op+BczXv+qrm7Ev3PhhbB0VFWkOWu96b0BLuC5LKVvzgc43SR/YAGaA9UDBmnzE0Jk0Yg3omUBfrtaCDuDlPBc7fYPsPcB2qkyt+t0ih0EeoFP4+wrPOiOV/gN4dTHxiXSdoAAAAABJRU5ErkJggg==;" vertex="1" parent="1">
          <mxGeometry x="325" y="203" width="26" height="13.47" as="geometry" />
        </mxCell>
      </root>
    </mxGraphModel>
  </diagram>
</mxfile>
